<svg xmlns="http://www.w3.org/2000/svg" viewBox="-261.7 -263 523.5 582.4">
  <defs>
    <linearGradient id="gem-g1">
      <stop offset="0" stop-color="#ca879c"/>
      <stop offset="0.5" stop-color="#d57577"/>
      <stop offset="1" stop-color="#d5876f"/>
    </linearGradient>
    <linearGradient id="gem-g2">
      <stop offset="0" stop-color="#8b5d6c"/>
      <stop offset="0.5" stop-color="#935052"/>
      <stop offset="1" stop-color="#935d4c"/>
    </linearGradient>
    <linearGradient id="gem-g3">
      <stop offset="0" stop-color="#b2715d"/>
      <stop offset="0.1667" stop-color="#b2765b"/>
      <stop offset="0.8333" stop-color="#aa9262"/>
      <stop offset="1" stop-color="#a09363"/>
    </linearGradient>
    <linearGradient id="gem-g4">
      <stop offset="0" stop-color="#6d4539"/>
      <stop offset="0.1667" stop-color="#6d4837"/>
      <stop offset="0.8333" stop-color="#68593c"/>
      <stop offset="1" stop-color="#625a3c"/>
    </linearGradient>
    <linearGradient id="gem-g15">
      <stop offset="0" stop-color="#89bca6"/>
      <stop offset="0.1667" stop-color="#7fbbb3"/>
      <stop offset="0.8333" stop-color="#d699b6"/>
      <stop offset="1" stop-color="#da92a8"/>
    </linearGradient>
    <linearGradient id="gem-g16">
      <stop offset="0" stop-color="#628777"/>
      <stop offset="0.1667" stop-color="#5b8681"/>
      <stop offset="0.8333" stop-color="#9a6e83"/>
      <stop offset="1" stop-color="#9d6979"/>
    </linearGradient>
  </defs>
  <ellipse cx="0" cy="250.6" rx="144" ry="28.8" fill="#000" fill-opacity="0.18"><animate attributeName="rx" dur="3s" repeatCount="indefinite" calcMode="spline" keyTimes="0;0.5;1" keySplines="0.45 0 0.55 1;0.45 0 0.55 1" values="144;100.8;144"/><animate attributeName="ry" dur="3s" repeatCount="indefinite" calcMode="spline" keyTimes="0;0.5;1" keySplines="0.45 0 0.55 1;0.45 0 0.55 1" values="28.8;20.2;28.8"/><animate attributeName="fill-opacity" dur="3s" repeatCount="indefinite" calcMode="spline" keyTimes="0;0.5;1" keySplines="0.45 0 0.55 1;0.45 0 0.55 1" values="0.18;0.09;0.18"/></ellipse>
  <g>
    <animateTransform attributeName="transform" type="translate" dur="3s" repeatCount="indefinite" calcMode="spline" keyTimes="0;0.5;1" keySplines="0.45 0 0.55 1;0.45 0 0.55 1" values="0 0;0 -18;0 0"/>
  <path fill="url(#gem-g1)" d="M-48.7 -199.4 A4 4 0 0 1 -44.9 -202 L44.9 -202 A4 4 0 0 1 48.7 -199.4 L85.4 -103.4 A4 4 0 0 1 81.7 -98 L-81.7 -98 A4 4 0 0 1 -85.4 -103.4 Z"/>
  <path fill="url(#gem-g2)" d="M-86.2 -86.8 A4 4 0 0 1 -82.4 -92 L82.4 -92 A4 4 0 0 1 86.2 -86.8 L3.8 182.3 A4 4 0 0 1 -3.8 182.3 Z"/>
  <path fill="url(#gem-g3)" d="M56.2 -196.6 A4 4 0 0 1 59.9 -202 L117 -202 A4 4 0 0 1 120 -200.7 L208.7 -104.7 A4 4 0 0 1 205.7 -98 L96.7 -98 A4 4 0 0 1 92.9 -100.6 Z"/>
  <path fill="url(#gem-g4)" d="M93.2 -89.2 A4 4 0 0 1 97 -92 L207.9 -92 A4 4 0 0 1 211.1 -85.6 L21.9 170.4 A4 4 0 0 1 14.8 166.8 Z"/>
  <path fill="url(#gem-g15)" d="M-120 -200.7 A4 4 0 0 1 -117 -202 L-59.9 -202 A4 4 0 0 1 -56.2 -196.6 L-92.9 -100.6 A4 4 0 0 1 -96.7 -98 L-205.7 -98 A4 4 0 0 1 -208.7 -104.7 Z"/>
  <path fill="url(#gem-g16)" d="M-211.1 -85.6 A4 4 0 0 1 -207.9 -92 L-97 -92 A4 4 0 0 1 -93.2 -89.2 L-14.8 166.8 A4 4 0 0 1 -21.9 170.4 Z"/>
  </g>
</svg>
