<svg xmlns="http://www.w3.org/2000/svg" viewBox="-261.7 -268.8 523.5 594">
  <defs>
    <linearGradient id="gem-g0" x1="0.1105" y1="0.1865" x2="0.8895" y2="0.8135">
      <stop offset="0" stop-color="#ff99c1"/>
      <stop offset="1" stop-color="#ee4689"/>
    </linearGradient>
    <linearGradient id="gem-g1" x1="0.1105" y1="0.1865" x2="0.8895" y2="0.8135">
      <stop offset="0" stop-color="#ffc6dc"/>
      <stop offset="1" stop-color="#f86da4"/>
    </linearGradient>
    <linearGradient id="gem-g2" x1="0.1105" y1="0.1865" x2="0.8895" y2="0.8135">
      <stop offset="0" stop-color="#ea3880"/>
      <stop offset="1" stop-color="#b41d5d"/>
    </linearGradient>
    <linearGradient id="gem-g3" x1="0.1105" y1="0.1865" x2="0.8895" y2="0.8135">
      <stop offset="0" stop-color="#f769a2"/>
      <stop offset="1" stop-color="#d72a71"/>
    </linearGradient>
    <linearGradient id="gem-g4" x1="0.1105" y1="0.1865" x2="0.8895" y2="0.8135">
      <stop offset="0" stop-color="#ab1a58"/>
      <stop offset="1" stop-color="#661136"/>
    </linearGradient>
    <linearGradient id="gem-g5" x1="0.1105" y1="0.1865" x2="0.8895" y2="0.8135">
      <stop offset="0" stop-color="#d92a71"/>
      <stop offset="1" stop-color="#9c1851"/>
    </linearGradient>
    <linearGradient id="gem-g13" x1="0.1105" y1="0.1865" x2="0.8895" y2="0.8135">
      <stop offset="0" stop-color="#ffd6e6"/>
      <stop offset="1" stop-color="#fc7bae"/>
    </linearGradient>
    <linearGradient id="gem-g15" x1="0.1105" y1="0.1865" x2="0.8895" y2="0.8135">
      <stop offset="0" stop-color="#ffe6f0"/>
      <stop offset="1" stop-color="#ff98c1"/>
    </linearGradient>
    <linearGradient id="gem-g16" x1="0.1105" y1="0.1865" x2="0.8895" y2="0.8135">
      <stop offset="0" stop-color="#f6659f"/>
      <stop offset="1" stop-color="#d4296f"/>
    </linearGradient>
  </defs>
  <ellipse cx="0" cy="256.4" rx="144" ry="28.8" fill="#000" fill-opacity="0.18"><animate attributeName="rx" dur="3s" repeatCount="indefinite" calcMode="spline" keyTimes="0;0.5;1" keySplines="0.45 0 0.55 1;0.45 0 0.55 1" values="144;100.8;144"/><animate attributeName="ry" dur="3s" repeatCount="indefinite" calcMode="spline" keyTimes="0;0.5;1" keySplines="0.45 0 0.55 1;0.45 0 0.55 1" values="28.8;20.2;28.8"/><animate attributeName="fill-opacity" dur="3s" repeatCount="indefinite" calcMode="spline" keyTimes="0;0.5;1" keySplines="0.45 0 0.55 1;0.45 0 0.55 1" values="0.18;0.09;0.18"/></ellipse>
  <g>
    <animateTransform attributeName="transform" type="translate" dur="3s" repeatCount="indefinite" calcMode="spline" keyTimes="0;0.5;1" keySplines="0.45 0 0.55 1;0.45 0 0.55 1" values="0 0;0 -18;0 0"/>
  <path fill="url(#gem-g0)" stroke="url(#gem-g0)" stroke-width="1" stroke-linejoin="round" vector-effect="non-scaling-stroke" d="M49.7 -181.5 L120.1 -190.1 L120.1 -202.2 L49.7 -210.8 L-49.7 -210.8 L-120.1 -202.2 L-120.1 -190.1 L-49.7 -181.5 Z"/>
  <path fill="url(#gem-g1)" stroke="url(#gem-g1)" stroke-width="1" stroke-linejoin="round" vector-effect="non-scaling-stroke" d="M-49.7 -181.5 L49.7 -181.5 L91.8 -60 L-91.8 -60 Z"/>
  <path fill="url(#gem-g2)" stroke="url(#gem-g2)" stroke-width="1" stroke-linejoin="round" vector-effect="non-scaling-stroke" d="M-91.8 -60 L91.8 -60 L0 210.8 Z"/>
  <path fill="url(#gem-g3)" stroke="url(#gem-g3)" stroke-width="1" stroke-linejoin="round" vector-effect="non-scaling-stroke" d="M49.7 -181.5 L120.1 -190.1 L221.7 -75.8 L91.8 -60 Z"/>
  <path fill="url(#gem-g4)" stroke="url(#gem-g4)" stroke-width="1" stroke-linejoin="round" vector-effect="non-scaling-stroke" d="M91.8 -60 L221.7 -75.8 L0 210.8 Z"/>
  <path fill="url(#gem-g5)" stroke="url(#gem-g5)" stroke-width="1" stroke-linejoin="round" vector-effect="non-scaling-stroke" d="M120.1 -190.1 L120.1 -202.2 L221.7 -98.2 L221.7 -75.8 Z"/>
  <path fill="url(#gem-g13)" stroke="url(#gem-g13)" stroke-width="1" stroke-linejoin="round" vector-effect="non-scaling-stroke" d="M-120.1 -202.2 L-120.1 -190.1 L-221.7 -75.8 L-221.7 -98.2 Z"/>
  <path fill="url(#gem-g15)" stroke="url(#gem-g15)" stroke-width="1" stroke-linejoin="round" vector-effect="non-scaling-stroke" d="M-120.1 -190.1 L-49.7 -181.5 L-91.8 -60 L-221.7 -75.8 Z"/>
  <path fill="url(#gem-g16)" stroke="url(#gem-g16)" stroke-width="1" stroke-linejoin="round" vector-effect="non-scaling-stroke" d="M-221.7 -75.8 L-91.8 -60 L0 210.8 Z"/>
  </g>
</svg>
